<svg aria-hidden="true" style="position: absolute; width: 0; height: 0; overflow: hidden;" version="1.1" xmlns="http://www.w3.org/2000/svg" xmlns:xlink="http://www.w3.org/1999/xlink">
<defs>
<symbol id="icon-reply" viewBox="0 0 256 256">
<path d="M112 193.907v62.093l-96-96 96-96v63.456c111.688 2.62 106.897-75.948 78.466-127.456 70.178 75.853 55.275 197.393-78.466 193.907z"></path>
</symbol>
<symbol id="icon-star-empty" viewBox="0 0 256 256">
<path d="M256 99.263l-88.445-12.852-39.555-80.145-39.554 80.145-88.446 12.852 64 62.384-15.108 88.088 79.108-41.59 79.108 41.589-15.108-88.088 64-62.385zM128 188.375l-55.865 29.37 10.669-62.208-45.197-44.055 62.46-9.076 27.933-56.599 27.934 56.599 62.459 9.076-45.197 44.055 10.669 62.208-55.865-29.37z"></path>
</symbol>
<symbol id="icon-star-full" viewBox="0 0 256 256">
<path d="M256 99.263l-88.445-12.852-39.555-80.145-39.554 80.145-88.446 12.852 64 62.384-15.108 88.088 79.108-41.59 79.108 41.589-15.108-88.088 64-62.385z"></path>
</symbol>
<symbol id="icon-play3" viewBox="0 0 256 256">
<path d="M48 32l160 96-160 96z"></path>
</symbol>
</defs>
</svg>
